DBRep_DrawableShape

CASCADE Topology V1, (c) Matra-Datavision
Locations 3
1
1.11022302462516e-16              -1               0               0 
              1 1.11022302462516e-16               0               0 
              0               0               1               0 
1
-2.22044604925031e-16               1               0               0 
             -1 -2.22044604925031e-16               0               0 
              0               0               1               0 
1
             -1 -1.22464679914735e-16               0               0 
1.22464679914735e-16              -1               0               0 
              0               0               1               0 
Curve2ds 24
8 -4.2426406871192848 1.4142135623730949
1 1 3 -0.70710678118654757 0.70710678118654746 
8 -4.2426406871192848 1.4142135623730949
1 1.4142135623730949 -60 -1 -0 
8 -1.4142135623730949 4.2426406871192848
1 -1 3 -0.70710678118654757 -0.70710678118654746 
8 -1.4142135623730949 4.2426406871192848
1 1.4142135623730949 -100 1 0 
8 -4.2426406871192874 1.4142135623730954
1 1.0000000000000004 2.9999999999999996 -0.70710678118654735 0.70710678118654779 
8 -4.2426406871192874 1.4142135623730954
1 1.4142135623730954 -60 -1 -0 
8 -1.4142135623730954 4.2426406871192874
1 -1.0000000000000004 2.9999999999999996 -0.70710678118654735 -0.70710678118654779 
8 -1.4142135623730954 4.2426406871192874
1 1.4142135623730954 -100 1 0 
8 -4.2426406871192857 1.4142135623730949
1 1.0000000000000004 3.0000000000000004 -0.70710678118654746 0.70710678118654768 
8 -4.2426406871192857 1.4142135623730949
1 1.4142135623730949 -60 -1 -0 
8 -4.2426406871192848 1.4142135623730954
1 1.0000000000000002 2.9999999999999996 -0.70710678118654746 0.70710678118654757 
8 -4.2426406871192848 1.4142135623730954
1 1.4142135623730954 -60 -1 0 
8 -1.4142135623730954 4.2426406871192848
1 -1.0000000000000002 2.9999999999999996 -0.70710678118654746 -0.70710678118654757 
8 -1.4142135623730954 4.2426406871192848
1 1.4142135623730954 -100 1 0 
8 -1.4142135623730949 4.2426406871192857
1 -1.0000000000000004 3.0000000000000004 -0.70710678118654746 -0.70710678118654768 
8 -1.4142135623730949 4.2426406871192857
1 1.4142135623730949 -100 1 0 
8 -4.2426406871192848 1.4142135623730949
1 1 3 -0.70710678118654757 0.70710678118654746 
8 -4.2426406871192848 1.4142135623730949
1 1.4142135623730949 -55 -1 -0 
8 -4.2426406871192874 1.4142135623730954
1 1.0000000000000004 2.9999999999999996 -0.70710678118654735 0.70710678118654779 
8 -4.2426406871192874 1.4142135623730954
1 1.4142135623730954 -55 -1 -0 
8 -4.2426406871192848 1.4142135623730954
1 1.0000000000000002 2.9999999999999996 -0.70710678118654746 0.70710678118654757 
8 -4.2426406871192848 1.4142135623730954
1 1.4142135623730954 -55 -1 0 
8 -4.2426406871192857 1.4142135623730949
1 1.0000000000000004 3.0000000000000004 -0.70710678118654746 0.70710678118654768 
8 -4.2426406871192857 1.4142135623730949
1 1.4142135623730949 -55 -1 -0 
Curves 16
1 -1.0000000000000004 -3 100 0.70710678118654746 -0.70710678118654757 0 
1 -4 4.4408920985006262e-16 40 0 0 1 
1 -1.0000000000000004 -3 140 -0.70710678118654746 0.70710678118654757 0 
1 -4.8985871965894128e-16 -4 40 0 0 1 
1 -2.9999999999999996 1.0000000000000004 100 -0.70710678118654779 -0.70710678118654735 0 
1 1.3322676295501878e-15 4 40 0 0 1 
1 -2.9999999999999996 1.0000000000000004 140 0.70710678118654779 0.70710678118654735 -0 
1 1.0000000000000011 3 100 -0.70710678118654735 0.70710678118654779 0 
1 2.9999999999999996 -1.0000000000000007 100 0.70710678118654768 0.70710678118654735 -0 
1 2.9999999999999996 -1.0000000000000007 140 -0.70710678118654768 -0.70710678118654735 0 
1 4 -9.33947929509004e-16 40 0 0 1 
1 1.0000000000000011 3 140 0.70710678118654735 -0.70710678118654779 0 
1 -1.0000000000000004 -3 95 0.70710678118654746 -0.70710678118654757 0 
1 -2.9999999999999996 1.0000000000000004 95 -0.70710678118654779 -0.70710678118654735 0 
1 2.9999999999999996 -1.0000000000000007 95 0.70710678118654768 0.70710678118654735 -0 
1 1.0000000000000011 3 95 -0.70710678118654735 0.70710678118654779 0 
Polygon3D 0
PolygonOnTriangulations 44
2 3 4 
p 0.500000019999999 1 -4.24264068711928 1.41421356237309 
2 1 3 
p 4.00000004766332 1 60 100 
2 2 4 
p 4.80000005719598 1 60 100 
2 3 4 
p 0.800000031636358 1 -1.41421356237309 4.24264068711928 
2 1 3 
p 4.00000004766332 1 60 100 
2 1 2 
p 4.80000005719598 1 60 100 
2 2 4 
p 4.80000005719598 1 60 100 
2 3 4 
p 0.500000019999999 1 -4.24264068711929 1.4142135623731 
2 1 2 
p 4.00000004766332 1 60 100 
2 2 4 
p 4.80000005719598 1 60 100 
2 1 3 
p 4.80000005719598 1 60 100 
2 4 1 
p 0.800000031636358 1 -1.4142135623731 4.24264068711929 
2 3 4 
p 0.500000019999999 1 -4.24264068711929 1.41421356237309 
2 4 3 
p 0.800000031661676 1 -4.24264068711929 1.41421356237309 
2 3 4 
p 0.500000019999999 1 -4.24264068711928 1.4142135623731 
2 2 4 
p 0.800000031661676 1 -4.24264068711928 1.4142135623731 
2 14 15 
p 0.865913791832335 1 -1.4142135623731 4.24264068711928 
2 2 3 
p 0.800000031636358 1 -1.4142135623731 4.24264068711928 
2 1 2 
p 4.00000004766332 1 60 100 
2 2 4 
p 4.80000005719598 1 60 100 
2 1 3 
p 4.80000005719598 1 60 100 
2 14 15 
p 0.865913791832335 1 -1.41421356237309 4.24264068711929 
2 1 2 
p 0.800000031636358 1 -1.41421356237309 4.24264068711929 
2 1 2 
p 0.500000019999999 1 -4.24264068711928 1.41421356237309 
2 1 2 
p 0.800000031630031 1 -4.24264068711928 1.41421356237309 
2 1 3 
p 0.500000047682383 1 55 60 
2 2 4 
p 0.600000057218858 1 55 60 
2 1 2 
p 0.500000047682383 1 55 60 
2 1 3 
p 0.600000057218858 1 55 60 
2 2 4 
p 0.600000057218858 1 55 60 
2 1 2 
p 0.500000019999999 1 -4.24264068711929 1.4142135623731 
2 3 1 
p 0.800000031630031 1 -4.24264068711929 1.4142135623731 
2 2 4 
p 0.500000047682383 1 55 60 
2 1 2 
p 0.600000057218858 1 55 60 
2 1 3 
p 0.600000057218858 1 55 60 
2 1 2 
p 0.500000019999999 1 -4.24264068711928 1.4142135623731 
2 2 3 
p 0.865913791832335 1 -4.24264068711928 1.4142135623731 
2 2 4 
p 0.800000031630031 1 -4.24264068711928 1.4142135623731 
2 2 4 
p 0.500000047682383 1 55 60 
2 1 2 
p 0.600000057218858 1 55 60 
2 1 3 
p 0.600000057218858 1 55 60 
2 1 2 
p 0.500000019999999 1 -4.24264068711929 1.41421356237309 
2 2 3 
p 0.865913791832335 1 -4.24264068711929 1.41421356237309 
2 4 3 
p 0.800000031630031 1 -4.24264068711929 1.41421356237309 
Surfaces 7
1 -4.8985871965894128e-16 -4 40 -0.70710678118654757 -0.70710678118654746 0 -0.70710678118654746 0.70710678118654757 0 -0 0 -1 
1 0 0 100 0 0 1 0 1 0 -1 0 0 
1 0 0 140 0 0 1 0 -1 0 -1 -0 0 
1 -4 4.4408920985006262e-16 40 -0.70710678118654735 0.70710678118654779 0 0.70710678118654779 0.70710678118654735 0 0 0 -1 
1 1.3322676295501878e-15 4 40 0.70710678118654779 0.70710678118654735 -0 0.70710678118654735 -0.70710678118654779 0 0 -0 -1 
1 4 -9.33947929509004e-16 40 0.70710678118654735 -0.70710678118654768 0 -0.70710678118654768 -0.70710678118654735 0 0 -0 -1 
1 0 0 95 0 0 1 0 1 0 -1 0 0 
Triangulations 21
4 2 1 1.46870724520571e-08
-4.00000002065817 4.4408921214358e-16 100 -5.89438648227703e-16 -4.00000002065817 100 -4.0000000208269 4.44089212162313e-16 140 -5.89438648256768e-16 -4.0000000208269 140 5.65685424949238 -60 4.88498130835069e-15 -60 5.65685426421922 -100 4.88498130835069e-15 -100 1 4 3 1 2 4 
4 2 1 1.45598121647688e-08
-4.00000002045571 4.44089212121102e-16 95 -5.89438648192828e-16 -4.00000002045571 95 -4.00000002065817 4.4408921214358e-16 100 -5.89438648227703e-16 -4.00000002065817 100 5.65685424949238 -55 4.88498130835069e-15 -55 5.65685426409991 -60 4.88498130835069e-15 -60 1 4 3 1 2 4 
4 2 1 1.46870730071686e-08
9.99200725602918e-16 4.00000002065817 100 -4.00000002065817 4.4408921214358e-16 100 9.99200725631017e-16 4.0000000208269 140 -4.0000000208269 4.44089212162313e-16 140 5.65685424949238 -60 -4.66293670342566e-15 -60 5.65685426421922 -100 -4.66293670342566e-15 -100 1 4 3 1 2 4 
5 4 1 0
9.99200725631017e-16 4.0000000208269 140 4.0000000208269 -9.22505556800441e-16 140 -5.89438648256768e-16 -4.0000000208269 140 -4.0000000208269 4.44089212162313e-16 140 -1.04134483258633e-08 2.31225001942355e-24 140 8.88178419700125e-16 4.0000000208269 -4 -3.5527136788005e-15 0 -4.0000000208269 4.0000000208269 -8.88178419700125e-16 1.04134478817741e-08 0 5 1 2 5 2 3 5 3 4 5 4 1 
4 2 1 1.46870726741017e-08
-5.89438648227703e-16 -4.00000002065817 100 4.00000002065817 -9.22505556762009e-16 100 -5.89438648256768e-16 -4.0000000208269 140 4.0000000208269 -9.22505556800441e-16 140 5.65685424949238 -60 -4.66293670342566e-15 -60 5.65685426421922 -100 -4.66293670342566e-15 -100 1 4 3 1 2 4 
4 2 1 1.32422673060486e-15
-5.89438648227703e-16 -4.00000002065817 100 -5.89438648256768e-16 -4.0000000208269 140 -6.44609650732389e-15 -8 140 -1.37803713935907e-15 -8 100 0 -4.00000002065817 40 -4.0000000208269 40 -8 0 -8 2 4 3 2 1 4 
4 2 1 1.45598124978358e-08
9.992007255692e-16 4.00000002045571 95 -4.00000002045571 4.44089212121102e-16 95 9.99200725602918e-16 4.00000002065817 100 -4.00000002065817 4.4408921214358e-16 100 5.65685424949239 -55 -4.66293670342566e-15 -55 5.65685426409991 -60 -4.66293670342566e-15 -60 1 4 3 1 2 4 
4 2 1 2.91059845089874e-15
9.99200725602918e-16 4.00000002065817 100 9.99200725631017e-16 4.0000000208269 140 6.40032699751501e-15 8 140 1.33226762955019e-15 8 100 0 -4.00000002065817 40 -4.0000000208269 40 -8 0 -8 2 4 3 2 1 4 
4 2 1 1.46870721189902e-08
4.00000002065817 -9.22505556762009e-16 100 9.99200725602918e-16 4.00000002065817 100 4.0000000208269 -9.22505556800441e-16 140 9.99200725631017e-16 4.0000000208269 140 5.65685424949238 -60 4.88498130835069e-15 -60 5.65685426421922 -100 4.88498130835069e-15 -100 1 4 3 1 2 4 
5 4 1 0
-4.00000002065817 4.4408921214358e-16 100 -5.89438648227703e-16 -4.00000002065817 100 9.99200725602918e-16 4.00000002065817 100 4.00000002065817 -9.22505556762009e-16 100 1.03290866970696e-08 1.03290869191142e-08 100 4 3.5527136788005e-15 3.5527136788005e-15 4 -8.88178419700125e-16 -4.00000002065817 -4.00000002065817 8.88178419700125e-16 -1.03290869191142e-08 -1.03290869191142e-08 5 1 2 5 3 1 5 4 3 5 2 4 
4 2 1 1.45598121647688e-08
4.00000002045571 -9.22505556715895e-16 95 9.992007255692e-16 4.00000002045571 95 4.00000002065817 -9.22505556762009e-16 100 9.99200725602918e-16 4.00000002065817 100 5.65685424949239 -55 4.88498130835069e-15 -55 5.65685426409991 -60 4.88498130835069e-15 -60 1 4 3 1 2 4 
4 2 1 1.45598122757912e-08
-5.89438648192828e-16 -4.00000002045571 95 4.00000002045571 -9.22505556715895e-16 95 -5.89438648227703e-16 -4.00000002065817 100 4.00000002065817 -9.22505556762009e-16 100 5.65685424949238 -55 -4.66293670342566e-15 -55 5.65685426409991 -60 -4.66293670342566e-15 -60 1 4 3 1 2 4 
16 15 1 0
-6.44609650732389e-15 -8 140 8 -6.89018571717395e-15 140 1.04420953776041 -7.93155889099048 140 2.07055236082017 -7.72740661031254 140 3.06146745892072 -7.39103626009029 140 4.00000000000001 -6.92820323027551 140 4.87009143206977 -6.34682672232988 140 5.65685424949239 -5.65685424949237 140 6.34682672232989 -4.87009143206975 140 6.92820323027552 -3.99999999999998 140 7.3910362600903 -3.0614674589207 140 7.72740661031255 -2.07055236082014 140 7.93155889099049 -1.04420953776039 140 4.0000000208269 -9.22505556800441e-16 140 -5.89438648256768e-16 -4.0000000208269 140 4 -3.99999999999999 140 -8 0 2.8421709430404e-14 8 -7.93155889099048 1.04420953776042 -7.72740661031254 2.07055236082017 -7.39103626009029 3.06146745892072 -6.9282032302755 4.00000000000001 -6.34682672232987 4.87009143206977 -5.65685424949237 5.65685424949239 -4.87009143206975 6.34682672232989 -3.99999999999998 6.92820323027552 -3.0614674589207 7.3910362600903 -2.07055236082014 7.72740661031255 -1.04420953776039 7.93155889099049 -8.88178419700125e-16 4.0000000208269 -4 2.66453525910038e-15 -3.99999999999999 4 15 3 1 15 4 3 15 5 4 12 11 14 13 12 14 2 13 14 16 6 5 16 7 6 16 8 7 16 9 8 16 10 9 16 11 10 16 15 14 16 5 15 16 14 11 
4 2 1 1.65502599025857e-15
4.00000002065817 -9.22505556762009e-16 100 4.0000000208269 -9.22505556800441e-16 140 8 -6.89018571717395e-15 140 8 -1.82212634920913e-15 100 0 -4.00000002065817 40 -4.0000000208269 40 -8 0 -8 2 4 3 2 1 4 
16 15 1 0
8 -6.89018571717395e-15 140 6.40032699751501e-15 8 140 7.93155889099048 1.04420953776041 140 7.72740661031255 2.07055236082017 140 7.39103626009029 3.06146745892072 140 6.92820323027551 4.00000000000001 140 6.34682672232988 4.87009143206977 140 5.65685424949237 5.65685424949239 140 4.87009143206975 6.34682672232989 140 3.99999999999999 6.92820323027552 140 3.0614674589207 7.3910362600903 140 2.07055236082015 7.72740661031255 140 1.04420953776039 7.93155889099049 140 9.99200725631017e-16 4.0000000208269 140 4.0000000208269 -9.22505556800441e-16 140 3.99999999999999 4 140 -8 0 2.8421709430404e-14 8 -7.93155889099048 1.04420953776042 -7.72740661031254 2.07055236082017 -7.39103626009029 3.06146745892072 -6.9282032302755 4.00000000000001 -6.34682672232987 4.87009143206977 -5.65685424949237 5.65685424949239 -4.87009143206975 6.34682672232989 -3.99999999999998 6.92820323027552 -3.0614674589207 7.3910362600903 -2.07055236082014 7.72740661031255 -1.04420953776039 7.93155889099049 0 4.0000000208269 -4 -3.5527136788005e-15 -3.99999999999999 4 15 3 1 15 4 3 15 5 4 12 11 14 13 12 14 2 13 14 16 6 5 16 7 6 16 8 7 16 9 8 16 10 9 16 11 10 16 15 14 16 5 15 16 14 11 
5 4 1 0
-4.00000002045571 4.44089212121102e-16 95 -5.89438648192828e-16 -4.00000002045571 95 9.992007255692e-16 4.00000002045571 95 4.00000002045571 -9.22505556715895e-16 95 1.02278565616842e-08 1.02278567837288e-08 95 4 3.5527136788005e-15 3.5527136788005e-15 4 -8.88178419700125e-16 -4.00000002045571 -4.00000002045571 8.88178419700125e-16 -1.02278567837288e-08 -1.02278567837288e-08 5 1 2 5 3 1 5 4 3 5 2 4 
4 2 1 3.65126392047275e-16
-5.89438648192828e-16 -4.00000002045571 95 -5.89438648227703e-16 -4.00000002065817 100 -1.37803713935907e-15 -8 100 -1.37803713935907e-15 -8 95 0 -4.00000002045571 5 -4.00000002065817 5 -8 0 -8 2 4 3 2 1 4 
4 2 1 1.22124532823443e-15
9.992007255692e-16 4.00000002045571 95 9.99200725602918e-16 4.00000002065817 100 1.33226762955019e-15 8 100 1.33226762955019e-15 8 95 0 -4.00000002045571 5 -4.00000002065817 5 -8 0 -8 2 4 3 2 1 4 
16 15 1 0
-1.37803713935907e-15 -8 95 -5.89438648192828e-16 -4.00000002045571 95 4.00000002045571 -9.22505556715895e-16 95 8 -1.82212634920913e-15 95 1.04420953776041 -7.93155889099048 95 2.07055236082017 -7.72740661031254 95 3.06146745892072 -7.39103626009029 95 4.00000000000001 -6.92820323027551 95 4.87009143206977 -6.34682672232988 95 5.65685424949239 -5.65685424949237 95 6.34682672232989 -4.87009143206975 95 6.92820323027552 -3.99999999999998 95 7.3910362600903 -3.0614674589207 95 7.72740661031255 -2.07055236082014 95 7.93155889099049 -1.04420953776039 95 4 -4 95 8 -3.9831970004119e-16 4.00000002045571 -9.9579926028786e-17 -3.10862446895044e-15 4 8.88178419700125e-16 8 7.93155889099048 1.04420953776042 7.72740661031254 2.07055236082017 7.39103626009029 3.06146745892072 6.9282032302755 4.00000000000001 6.34682672232987 4.87009143206977 5.65685424949237 5.65685424949239 4.87009143206975 6.34682672232989 3.99999999999998 6.92820323027552 3.0614674589207 7.3910362600903 2.07055236082014 7.72740661031255 1.04420953776039 7.93155889099049 4 4 15 4 3 5 2 1 14 15 3 6 2 5 13 14 3 7 2 6 16 3 2 16 7 8 16 8 9 16 9 10 16 10 11 16 11 12 16 12 13 16 2 7 16 13 3 
4 2 1 3.43271323960527e-17
4.00000002045571 -9.22505556715895e-16 95 4.00000002065817 -9.22505556762009e-16 100 8 -1.82212634920913e-15 100 8 -1.82212634920913e-15 95 0 -4.00000002045571 5 -4.00000002065817 5 -8 0 -8 2 4 3 2 1 4 
16 15 1 0
8 -1.82212634920913e-15 95 4.00000002045571 -9.22505556715895e-16 95 9.992007255692e-16 4.00000002045571 95 1.33226762955019e-15 8 95 7.93155889099048 1.04420953776041 95 7.72740661031255 2.07055236082017 95 7.39103626009029 3.06146745892072 95 6.92820323027551 4.00000000000001 95 6.34682672232988 4.87009143206977 95 5.65685424949237 5.65685424949239 95 4.87009143206975 6.34682672232989 95 3.99999999999999 6.92820323027552 95 3.0614674589207 7.3910362600903 95 2.07055236082015 7.72740661031255 95 1.04420953776039 7.93155889099049 95 4 4 95 8 -4.57695098088819e-17 4.00000002045571 -3.43271324736909e-17 4.10782519111308e-15 4 -4.44089209850058e-16 8 7.93155889099048 1.04420953776042 7.72740661031254 2.07055236082017 7.39103626009029 3.06146745892072 6.9282032302755 4.00000000000001 6.34682672232987 4.87009143206977 5.65685424949237 5.65685424949239 4.87009143206975 6.34682672232989 3.99999999999998 6.92820323027552 3.0614674589207 7.3910362600903 2.07055236082014 7.72740661031255 1.04420953776039 7.93155889099049 4 4 15 4 3 5 2 1 14 15 3 6 2 5 13 14 3 7 2 6 16 3 2 16 7 8 16 8 9 16 9 10 16 10 11 16 11 12 16 12 13 16 2 7 16 13 3 

TShapes 60
Ve
2.74820475652783e-07
-4.00000002065817 4.4408921214358e-16 100
0 0

0101101
*
Ve
2.74820473876426e-07
-5.89438648227703e-16 -4.00000002065817 100
0 0

0101101
*
Ed
 1.58847527915873e-07 1 1 0
1  1 0 -4.24264068711928 1.41421356237309
2  1 2 1 -4.24264068711928 1.41421356237309
2  2 1 0 -4.24264068711928 1.41421356237309
6  1 2 0
0

0101000
+60 0 -59 0 *
Ve
2.74989205571708e-07
-4.0000000208269 4.44089212162313e-16 140
0 0

0101101
*
Ed
 2.38316566540707e-07 1 1 0
1  2 0 60 100
6  2 1 0
6  3 3 0
0

0101000
+60 0 -57 0 *
Ve
2.74989205571708e-07
-5.89438648256768e-16 -4.0000000208269 140
0 0

0101101
*
Ed
 1.58466760471677e-07 1 1 0
1  3 0 -1.41421356237309 4.24264068711928
2  3 3 1 -1.41421356237309 4.24264068711928
2  4 1 0 -1.41421356237309 4.24264068711928
6  4 4 0
0

0101000
+55 0 -57 0 *
Ed
 2.38316566540707e-07 1 1 0
1  4 0 60 100
6  5 5 0
6  6 6 0
6  7 1 0
0

0101000
+59 0 -55 0 *
Wi

0101000
+58 0 -56 0 +54 0 +53 0 *
Fa
0  1e-07 1 0
2  1
0101000
+52 0 *
Ve
2.74820473876426e-07
9.99200725602918e-16 4.00000002065817 100
0 0

0101101
*
Ed
 1.58847527915873e-07 1 1 0
1  5 0 -4.24264068711929 1.4142135623731
2  5 2 0 -4.24264068711929 1.4142135623731
2  6 4 0 -4.24264068711929 1.4142135623731
6  8 7 0
0

0101000
+50 0 -60 0 *
Ve
2.74989205571708e-07
9.99200725631017e-16 4.0000000208269 140
0 0

0101101
*
Ed
 2.38316566540707e-07 1 1 0
1  6 0 60 100
6  9 8 0
6  10 9 0
6  11 3 0
0

0101000
+50 0 -48 0 *
Ed
 1.58466760471677e-07 1 1 0
1  7 0 -1.4142135623731 4.24264068711929
2  7 3 0 -1.4142135623731 4.24264068711929
2  8 4 0 -1.4142135623731 4.24264068711929
6  12 4 0
0

0101000
+57 0 -48 0 *
Wi

0101000
+49 0 -47 0 +46 0 +56 0 *
Fa
0  1e-07 4 0
2  3
0101000
+45 0 *
Ve
2.74820475652783e-07
4.00000002065817 -9.22505556762009e-16 100
0 0

0101101
*
Ed
 1.58847527915873e-07 1 1 0
1  8 0 -4.24264068711929 1.41421356237309
2  9 2 2 -4.24264068711929 1.41421356237309
2  10 5 0 -4.24264068711929 1.41421356237309
6  13 11 0
6  14 10 0
0

0101000
+43 0 -50 0 *
Ed
 1.58847527915873e-07 1 1 0
1  9 0 -4.24264068711928 1.4142135623731
2  11 2 3 -4.24264068711928 1.4142135623731
2  12 6 0 -4.24264068711928 1.4142135623731
6  15 12 0
6  16 10 0
0

0101000
+59 0 -43 0 *
Wi

0101100
-58 0 -49 0 -42 0 -41 0 *
Fa
0  1.58308376875759e-07 2 1
2  10
0101000
-40 0 *
Ve
2.74989205571708e-07
4.0000000208269 -9.22505556800441e-16 140
0 0

0101101
*
Ed
 1.58466760471677e-07 1 1 0
1  10 0 -1.4142135623731 4.24264068711928
2  13 3 3 -1.4142135623731 4.24264068711928
2  14 6 0 -1.4142135623731 4.24264068711928
6  17 13 0
6  18 4 0
0

0101000
+38 0 -55 0 *
Ed
 2.38316566540707e-07 1 1 0
1  11 0 60 100
6  19 14 0
6  20 5 0
6  21 9 0
0

0101000
+43 0 -38 0 *
Wi

0101000
+41 0 -53 0 +37 0 +36 0 *
Fa
0  1e-07 6 0
2  5
0101000
+35 0 *
Ed
 1.58466760471677e-07 1 1 0
1  12 0 -1.41421356237309 4.24264068711929
2  15 3 2 -1.41421356237309 4.24264068711929
2  16 5 0 -1.41421356237309 4.24264068711929
6  22 15 0
6  23 4 0
0

0101000
+48 0 -38 0 *
Wi

0101000
+42 0 -36 0 +33 0 +47 0 *
Fa
0  1e-07 5 0
2  9
0101000
+32 0 *
Wi

0101100
+33 0 +37 0 +54 0 +46 0 *
Fa
0  1.58181783982962e-07 3 2
2  4
0101000
+30 0 *
Sh

0101000
-51 0 -44 0 +39 0 -34 0 -31 0 +29 0 *
So

0100000
-28 0 *
Ve
2.74618009164763e-07
-4.00000002045571 4.44089212121102e-16 95
0 0

0101101
*
Ve
2.74618009164763e-07
-5.89438648192828e-16 -4.00000002045571 95
0 0

0101101
*
Ed
 1.58561866679334e-07 1 1 0
1  13 0 -4.24264068711928 1.41421356237309
2  17 7 1 -4.24264068711928 1.41421356237309
2  18 1 0 -4.24264068711928 1.41421356237309
6  24 2 0
6  25 16 0
0

0101000
+26 0 -25 0 *
Ed
 2.38411909851152e-07 1 1 0
1  2 0 55 60
6  26 2 0
6  27 7 0
0

0101000
+26 0 -60 0 *
Ed
 2.38411909851152e-07 1 1 0
1  4 0 55 60
6  28 17 0
6  29 12 0
6  30 2 0
0

0101000
+25 0 -59 0 *
Wi

0101000
+24 0 -23 0 -58 0 +22 0 *
Fa
0  1e-07 1 0
2  2
0101000
+21 0 *
Ve
2.74618010052941e-07
9.992007255692e-16 4.00000002045571 95
0 0

0101101
*
Ed
 1.58561866679334e-07 1 1 0
1  14 0 -4.24264068711929 1.4142135623731
2  19 7 0 -4.24264068711929 1.4142135623731
2  20 4 0 -4.24264068711929 1.4142135623731
6  31 7 0
6  32 16 0
0

0101000
+19 0 -26 0 *
Ed
 2.38411909851152e-07 1 1 0
1  6 0 55 60
6  33 11 0
6  34 18 0
6  35 7 0
0

0101000
+19 0 -50 0 *
Wi

0101000
+18 0 -17 0 -49 0 +23 0 *
Fa
0  1e-07 4 0
2  7
0101000
+16 0 *
Ve
2.74618009164763e-07
4.00000002045571 -9.22505556715895e-16 95
0 0

0101101
*
Ed
 1.58561866679334e-07 1 1 0
1  15 0 -4.24264068711928 1.4142135623731
2  21 7 3 -4.24264068711928 1.4142135623731
2  22 6 0 -4.24264068711928 1.4142135623731
6  36 12 0
6  37 19 0
6  38 16 0
0

0101000
+25 0 -14 0 *
Ed
 2.38411909851152e-07 1 1 0
1  11 0 55 60
6  39 12 0
6  40 20 0
6  41 11 0
0

0101000
+14 0 -43 0 *
Wi

0101000
+13 0 -22 0 -41 0 +12 0 *
Fa
0  1e-07 6 0
2  12
0101000
+11 0 *
Ed
 1.58561866679334e-07 1 1 0
1  16 0 -4.24264068711929 1.41421356237309
2  23 7 2 -4.24264068711929 1.41421356237309
2  24 5 0 -4.24264068711929 1.41421356237309
6  42 11 0
6  43 21 0
6  44 16 0
0

0101000
+14 0 -19 0 *
Wi

0101000
+9 0 -12 0 -42 0 +17 0 *
Fa
0  1e-07 5 0
2  11
0101000
+8 0 *
Wi

0101100
-24 0 -18 0 -9 0 -13 0 *
Fa
0  1.58150151580315e-07 7 1
2  16
0101000
-6 0 *
Sh

0101000
-20 0 -15 0 -10 0 -7 0 -39 0 +5 0 *
So

0100000
-4 0 *
Co

0100000
+27 0 +3 0 *
Co

0100000
+2 0 *

+1 0 